<svg width="135" height="43" viewBox="0 0 135 43" fill="none" xmlns="http://www.w3.org/2000/svg">
<path fill-rule="evenodd" clip-rule="evenodd" d="M38.3809 30.0345C38.4512 30.2114 38.5216 30.3884 38.5919 30.5605C39.1399 32.1531 39.3089 33.6596 38.9719 35.1662C38.5079 38.3513 36.4409 41.1061 33.4889 42.3113C32.4349 42.7848 31.2539 43 30.0729 43C29.7359 43 29.3139 42.9569 28.9769 42.9139C27.5849 42.7417 26.1509 42.2683 24.7589 41.4504C23.0719 40.4604 21.3849 39.04 19.5299 36.974C17.6739 39.04 16.0289 40.4604 14.2999 41.4504C12.9089 42.2683 11.4749 42.7417 10.0829 42.9139C9.7459 42.9569 9.32389 43 8.98589 43C7.80589 43 6.66689 42.7848 5.56989 42.3113C2.65989 41.1061 0.551892 38.3944 0.0878918 35.1662C-0.123108 33.6166 0.0458918 32.1101 0.593892 30.5175C0.804891 29.9579 1.01589 29.4414 1.22689 28.968C1.38507 28.6043 1.54326 28.2501 1.6972 27.9054C1.87122 27.5158 2.03983 27.1382 2.19689 26.7728L2.23889 26.6867C5.14889 20.2302 8.31189 13.6877 11.5589 7.23122L11.6849 6.97301C12.0083 6.35527 12.3307 5.69817 12.654 5.03936L12.6979 4.94991C13.1189 4.1752 13.5829 3.35735 14.2159 2.58257C15.6079 0.946945 17.5049 0 19.6139 0C21.6809 0 23.6209 0.946945 24.9699 2.66866C25.5946 3.38568 26.0026 4.13952 26.3936 4.86205L26.4879 5.03601L26.5336 5.12924C26.8562 5.78667 27.1782 6.44265 27.4999 7.05901L27.6269 7.31731C30.9159 13.7738 34.0369 20.3163 36.9469 26.7728L36.9889 26.8158C37.1461 27.1816 37.3148 27.5594 37.489 27.9494C37.6428 28.2938 37.8009 28.6477 37.9589 29.011C38.0996 29.3267 38.2402 29.6806 38.3809 30.0345ZM71.1499 10.8038C71.1499 12.3533 69.9269 13.6016 68.4079 13.6016C66.8899 13.6016 65.6669 12.3533 65.6669 10.8038C65.6669 9.25422 66.8479 8.00601 68.4079 8.00601C69.9689 8.04902 71.1499 9.29731 71.1499 10.8038ZM59.8469 16.4424V17.1311C59.8469 17.1311 58.5399 15.4094 55.7569 15.4094C51.1599 15.4094 47.5749 18.982 47.5749 23.9319C47.5749 28.8388 51.1169 32.4544 55.7569 32.4544C58.5819 32.4544 59.8469 30.6897 59.8469 30.6897V31.4214C59.8469 31.7658 60.0999 32.024 60.4379 32.024H63.8539V15.8398H60.4379C60.0999 15.8398 59.8469 16.1411 59.8469 16.4424ZM56.4309 28.5806C57.9499 28.5806 59.2149 27.7628 59.8469 26.8158V21.048C59.2569 20.1441 57.9069 19.2833 56.4309 19.2833C53.7319 19.2833 51.6659 21.005 51.6659 23.9319C51.6659 26.8588 53.7319 28.5806 56.4309 28.5806ZM66.3839 15.8398H70.4329V32.024H66.3839V15.8398ZM122.77 17.1311C122.77 17.1311 124.077 15.4094 126.861 15.4094C131.415 15.4094 134.999 19.025 134.999 23.9319C134.999 28.8388 131.414 32.4544 126.817 32.4544C124.035 32.4544 122.728 30.6897 122.728 30.6897V31.4214C122.728 31.7227 122.474 32.024 122.136 32.024H118.721V8.04902H122.77V17.1311ZM126.186 28.5375C124.625 28.5375 123.402 27.7197 122.77 26.7728V21.005C123.402 20.1441 124.752 19.2402 126.186 19.2402C128.885 19.2402 130.951 20.962 130.951 23.8889C130.951 26.8158 128.885 28.5375 126.186 28.5375ZM116.612 32.0671V22.4254C116.612 19.7137 116.063 18.1642 114.63 16.9589C113.449 15.9259 111.973 15.4094 110.201 15.4094C108.642 15.4094 107.08 15.8829 105.899 17.1311V16.4424C105.899 16.1411 105.646 15.8398 105.31 15.8398H102.104V32.024H106.154V20.7467C106.955 19.7998 108.219 19.1541 109.442 19.1541C111.719 19.1541 112.563 20.2302 112.563 22.8989V32.0671H116.612ZM92.2789 15.4094C89.4949 15.4094 88.1879 17.1311 88.1879 17.1311V8.04902H84.1389V32.024H87.5549C87.8929 32.024 88.1459 31.7227 88.1459 31.4214V30.6897C88.1459 30.6897 89.4529 32.4544 92.2359 32.4544C96.8329 32.4544 100.418 28.8388 100.418 23.9319C100.46 19.025 96.8749 15.4094 92.2789 15.4094ZM88.1879 26.7728C88.8199 27.7197 90.0429 28.5375 91.6039 28.5375C94.3029 28.5375 96.3689 26.8158 96.3689 23.8889C96.3689 20.962 94.3029 19.2402 91.6039 19.2402C90.1699 19.2402 88.8199 20.1441 88.1879 21.005V26.7728ZM80.6389 15.4094C81.8619 15.4094 82.4939 15.6246 82.4939 15.6246V19.4554C82.4939 19.4554 79.1199 18.2933 77.0119 20.7467V32.0671H72.9629V15.8398H76.3789C76.7169 15.8398 76.9699 16.1411 76.9699 16.4424V17.1311C77.7289 16.2272 79.3739 15.4094 80.6389 15.4094ZM19.5719 32.7988C17.2949 29.8719 15.8179 27.1171 15.3119 24.7928C15.1019 23.8028 15.0589 22.9419 15.1859 22.1672C15.2699 21.4785 15.5229 20.8759 15.8609 20.3593C16.6619 19.1972 18.0109 18.4655 19.5719 18.4655C21.1319 18.4655 22.5239 19.1541 23.2829 20.3593C23.6209 20.8759 23.8739 21.4785 23.9579 22.1672C24.0839 22.9419 24.0419 23.8458 23.8309 24.7928C23.3249 27.0741 21.8489 29.8288 19.5719 32.7988ZM32.5609 39.8578C34.6279 38.997 36.1039 37.06 36.3989 34.8218C36.5679 33.7027 36.4409 32.6266 36.1039 31.5075C36.0164 31.2111 35.8891 30.9145 35.7497 30.5899C35.6867 30.4432 35.6212 30.2908 35.5559 30.1301C35.3858 29.7836 35.2267 29.4153 35.0675 29.0472C34.9104 28.6836 34.7533 28.3202 34.5859 27.978V27.9349C31.6759 21.5215 28.5549 14.979 25.3499 8.56561L25.2229 8.30731C25.0544 7.98447 24.8856 7.65089 24.7169 7.31732C24.5481 6.98374 24.3794 6.65017 24.2109 6.32731C23.8739 5.63861 23.4939 4.993 23.0299 4.43341C22.1439 3.4004 20.9639 2.84083 19.6559 2.84083C18.3489 2.84083 17.1679 3.4004 16.2819 4.43341C15.8179 4.993 15.4389 5.63861 15.1019 6.32731C14.9329 6.65017 14.7641 6.98376 14.5954 7.31734C14.4266 7.65091 14.2579 7.98447 14.0889 8.30731L13.9629 8.56561C10.7159 14.9359 7.59489 21.4785 4.68489 27.8919L4.64289 27.978C4.30489 28.7097 3.96789 29.4414 3.67289 30.1301C3.60832 30.2882 3.54376 30.4382 3.4816 30.5826C3.34062 30.9101 3.21203 31.2088 3.12389 31.5075C2.70289 32.7127 2.61789 33.7888 2.74489 34.8649C3.03989 37.1031 4.51589 39.04 6.58289 39.9009C7.55289 40.2883 8.64889 40.4604 9.7879 40.3313C10.8419 40.2022 11.8959 39.8578 12.9929 39.2122C14.5109 38.3513 16.0719 37.017 17.8009 35.037C15.0589 31.5505 13.3299 28.3223 12.6979 25.4815C12.3599 24.1902 12.3179 22.9419 12.4869 21.8228C12.6549 20.7467 13.0349 19.7567 13.6249 18.8959C14.9329 17.002 17.1259 15.8398 19.5719 15.8398C22.0179 15.8398 24.2109 16.9589 25.5179 18.8959C26.1089 19.7567 26.4879 20.7467 26.6569 21.8228C26.7839 22.9419 26.7409 24.1471 26.4459 25.4815C25.8139 28.3223 24.1269 31.5075 21.3429 34.994C23.1139 36.974 24.6329 38.3083 26.1509 39.1692C27.2469 39.8148 28.3019 40.1591 29.3559 40.2883C30.4529 40.4174 31.5489 40.2883 32.5609 39.8578Z" fill="black"/>
</svg>
