<svg width="1400" height="716" viewBox="0 0 1400 716" fill="none" xmlns="http://www.w3.org/2000/svg">
<mask id="mask0_342_69" style="mask-type:alpha" maskUnits="userSpaceOnUse" x="0" y="0" width="1400" height="716">
<rect width="1400" height="716" fill="#D9D9D9"/>
</mask>
<g mask="url(#mask0_342_69)">
<path d="M1276.85 39.5107C1154.26 -3.69022 1053.4 36.8838 925.517 46.8961C797.64 56.9084 805.342 44.2827 710.066 34.4991C614.791 24.7155 560.58 76.463 515 86.8981V204H1423L1412.33 80.0908C1412.33 80.0908 1399.66 82.7907 1276.85 39.5107Z" fill="url(#paint0_linear_342_69)"/>
<path d="M221 117.975C296.25 41.3754 359.262 45.9578 401.231 52.0393C443.201 58.1208 510.156 101.378 597.184 92.1911C684.211 83.0044 858 185 858 185H221V117.975Z" fill="url(#paint1_linear_342_69)"/>
<path d="M-142 157.754C81.8533 -66.3854 194.06 74.1789 342.69 102.674C491.32 131.168 512.469 173.569 611.167 165.389C709.862 157.209 1191 299 1191 299H-142V157.754Z" fill="url(#paint2_linear_342_69)" fill-opacity="0.57"/>
<path d="M233.07 132.071C82.6372 91.3136 -12.3167 124.352 -40.9896 145.966L-89 988.788H1516.85V200.503L1512.85 139.83C1538.19 127.17 1515.15 94.2777 1454.33 117.25C1393.52 140.222 1303.63 132.997 1266.29 126.513C1173.47 110.951 1082.25 102.147 1003.24 117.25C951 127.234 919.5 136.788 893.213 117.25C833.958 73.2081 758.183 81.7093 738.179 88.5346C662.163 114.471 631.823 132.071 573.143 117.25C495.126 97.545 455.118 111.692 447.116 111.692C320.089 149.389 241.071 132.071 233.07 132.071Z" fill="url(#paint3_linear_342_69)"/>
<path d="M-25 141.355C3.67471 119.803 98.6347 86.8587 249.077 127.5C298 139 336.101 144.768 463.137 107.179C509.5 97 511.15 93.0724 589.172 112.721C647.856 127.5 661.979 116.218 738 90.3551C753.781 84.9864 790.229 71.7988 909.262 112.721C928.268 119.255 968.5 128.5 1019.29 112.721C1098 85 1189.54 106.44 1282.37 121.958C1319.71 128.424 1409.6 135.628 1470.42 112.721C1531.24 89.8143 1495.76 109.334 1470.42 121.958" stroke="url(#paint4_linear_342_69)" stroke-width="23" stroke-linecap="round"/>
</g>
<defs>
<linearGradient id="paint0_linear_342_69" x1="973.913" y1="-26.4624" x2="954.83" y2="137.167" gradientUnits="userSpaceOnUse">
<stop stop-color="#61D2CC" stop-opacity="0.6"/>
<stop offset="1" stop-color="white" stop-opacity="0"/>
</linearGradient>
<linearGradient id="paint1_linear_342_69" x1="539.499" y1="72.1352" x2="539.499" y2="185" gradientUnits="userSpaceOnUse">
<stop stop-color="#176AB1"/>
<stop offset="1" stop-color="#CBD8F1"/>
</linearGradient>
<linearGradient id="paint2_linear_342_69" x1="-51.5978" y1="-17.5854" x2="-51.5978" y2="269.551" gradientUnits="userSpaceOnUse">
<stop stop-color="#FF6869"/>
<stop offset="0.484375" stop-color="#FF927A"/>
<stop offset="1" stop-color="#FF5F8F" stop-opacity="0"/>
</linearGradient>
<linearGradient id="paint3_linear_342_69" x1="406.1" y1="26.3577" x2="440.419" y2="1378.91" gradientUnits="userSpaceOnUse">
<stop stop-color="#F6A1CF"/>
<stop offset="0.125806" stop-color="#D3C5FE"/>
<stop offset="0.322116" stop-color="#D3C5FE" stop-opacity="0"/>
</linearGradient>
<linearGradient id="paint4_linear_342_69" x1="1202.34" y1="98.5841" x2="214.319" y2="57.4312" gradientUnits="userSpaceOnUse">
<stop stop-color="#E52A47"/>
<stop offset="0.84375" stop-color="#491EB8"/>
<stop offset="1" stop-color="#491EB8"/>
</linearGradient>
</defs>
</svg>
