<svg width="33" height="32" viewBox="0 0 33 32" fill="none" xmlns="http://www.w3.org/2000/svg">
<path fill-rule="evenodd" clip-rule="evenodd" d="M26.812 0H5.363C2.414 0 0 2.40019 0 5.3341V26.6677C0 29.6002 2.414 32 5.363 32H26.812C29.761 32 32.175 29.6002 32.175 26.6677V5.3341C32.175 2.40019 29.761 0 26.812 0ZM26.324 24.4874C26.324 25.4195 25.557 26.1806 24.619 26.1806H7.555C6.617 26.1806 5.849 25.4195 5.849 24.4874V7.5154C5.849 6.5828 6.617 5.8194 7.555 5.8194H24.619C25.557 5.8194 26.324 6.5828 26.324 7.5154V24.4874ZM19.502 20.364C20.037 20.364 20.476 19.9289 20.476 19.3938V12.6066C20.476 12.0734 20.037 11.6374 19.502 11.6374H12.678C12.141 11.6374 11.704 12.0734 11.704 12.6066V19.3938C11.704 19.9289 12.141 20.364 12.678 20.364H19.502Z" fill="black"/>
</svg>
