<svg width="1440" height="279" viewBox="0 0 1440 279" fill="none" xmlns="http://www.w3.org/2000/svg">
<path d="M1302.85 19.5107C1180.26 -23.6902 1079.4 16.8838 951.517 26.8961C823.64 36.9084 831.342 24.2827 736.066 14.4991C640.791 4.71551 586.58 56.463 541 66.8981V184H1449L1438.33 60.0908C1438.33 60.0908 1425.66 62.7907 1302.85 19.5107Z" fill="url(#paint0_linear_76_166)"/>
<path d="M247 97.9752C322.25 21.3754 385.262 25.9578 427.231 32.0393C469.201 38.1208 536.156 81.3779 623.184 72.1911C710.211 63.0044 884 165 884 165H247V97.9752Z" fill="url(#paint1_linear_76_166)"/>
<path d="M-116 137.754C107.853 -86.3854 220.06 54.1789 368.69 82.6735C517.32 111.168 538.469 153.569 637.167 145.389C735.862 137.209 1217 279 1217 279H-116V137.754Z" fill="url(#paint2_linear_76_166)" fill-opacity="0.57"/>
<defs>
<linearGradient id="paint0_linear_76_166" x1="999.913" y1="-46.4624" x2="980.83" y2="117.167" gradientUnits="userSpaceOnUse">
<stop stop-color="#61D2CC" stop-opacity="0.6"/>
<stop offset="1" stop-color="white" stop-opacity="0"/>
</linearGradient>
<linearGradient id="paint1_linear_76_166" x1="565.499" y1="52.1352" x2="565.499" y2="165" gradientUnits="userSpaceOnUse">
<stop stop-color="#176AB1"/>
<stop offset="1" stop-color="#CBD8F1"/>
</linearGradient>
<linearGradient id="paint2_linear_76_166" x1="-25.5978" y1="-37.5854" x2="-25.5978" y2="249.551" gradientUnits="userSpaceOnUse">
<stop stop-color="#FF6869"/>
<stop offset="0.484375" stop-color="#FF927A"/>
<stop offset="1" stop-color="#FF5F8F" stop-opacity="0"/>
</linearGradient>
</defs>
</svg>
